# xmcd
#
# Track frame offsets: 
#        150
#        12557
#        31819
#        54307
#        69314
#        82025
#        106840
#        119096
#        139337
#        157535
#        173917
#
# Disc length: 2550 seconds
#
# Revision: 0
# Processed by: cddbd v1.5.2PL0 Copyright (c) Steve Scherf et al.
# Submitted via: ExactAudioCopy v1.3
#
DISCID=8909f40b
DTITLE=Frank Bey - Back In Business
DYEAR=2018
DGENRE=Blues
TTITLE0=Back In Business
TTITLE1=Gun Toting Preacher
TTITLE2=Take It Back To Georgia
TTITLE3=Cookie Jar
TTITLE4=The Half Of It
TTITLE5=Where You Been So Long
TTITLE6=Better Look Out
TTITLE7=Ain't No Reason
TTITLE8=Blame Mother Nature
TTITLE9=Give It To Get It
TTITLE10=Yesterday's Dream
EXTD=
EXTT0=
EXTT1=
EXTT2=
EXTT3=
EXTT4=
EXTT5=
EXTT6=
EXTT7=
EXTT8=
EXTT9=
EXTT10=
PLAYORDER=
